ffmpeg started on 2025-06-06 at 16:29:33
Report written to "D:\Convert\FFMetrics\reports\ssim_report-6.txt"
Log level: 32
Command line:
ffmpeg -hide_banner -nostdin -i "G:\\\xc0\xed\xe8\xec\xe5\\\xce\xed\xe3\xee\xe8\xed\xe3\xe8\\!_36_\xce\xf1\xe5\xed\xfc_2024\\DreamCast\\\xcf\xe5\xf0\xe5\xf0\xee\xe6\xe4\xe5\xed\xe8\xe5 \xe2 \xe0\xf0\xe8\xf1\xf2\xee\xea\xf0\xe0\xf2\xe0 \xf1\xee \xf1\xef\xee\xf1\xee\xe1\xed\xee\xf1\xf2\xfc\xfe \xe0\xed\xe0\xeb\xe8\xe7\xe0\\\xd2\xc2-2\\DC_Tensei_Kizoku_Kantei_Skill_de_Nariagaru_S2_09_Telegram_HEVC.mkv" -i "G:\\\xc0\xed\xe8\xec\xe5\\\xce\xed\xe3\xee\xe8\xed\xe3\xe8\\!_36_\xce\xf1\xe5\xed\xfc_2024\\DreamCast\\\xcf\xe5\xf0\xe5\xf0\xee\xe6\xe4\xe5\xed\xe8\xe5 \xe2 \xe0\xf0\xe8\xf1\xf2\xee\xea\xf0\xe0\xf2\xe0 \xf1\xee \xf1\xef\xee\xf1\xee\xe1\xed\xee\xf1\xf2\xfc\xfe \xe0\xed\xe0\xeb\xe8\xe7\xe0\\\xd2\xc2-2\\DC_Tensei_Kizoku_Kantei_Skill_de_Nariagaru_S2_09_Telegram.mp4" -lavfi "[0:v]settb=AVTB,setpts=PTS-STARTPTS,format=pix_fmts=yuv420p10,fps=24000/1001,scale=1920:1080:flags=bicubic[main];[1:v]settb=AVTB,setpts=PTS-STARTPTS,format=pix_fmts=yuv420p,fps=24000/1001,scale=1920:1080:flags=bicubic[ref];[main][ref]ssim=eof_action=endall:stats_file='D\\:/Convert/FFMetrics/logs/ssim_logfile-6.txt'" -f null -
Input #0, matroska,webm, from 'G:\Аниме\Онгоинги\!_36_Осень_2024\DreamCast\Перерождение в аристократа со способностью анализа\ТВ-2\DC_Tensei_Kizoku_Kantei_Skill_de_Nariagaru_S2_09_Telegram_HEVC.mkv':
  Metadata:
    COMPATIBLE_BRANDS: isomiso2avc1mp41
    MAJOR_BRAND     : isom
    MINOR_VERSION   : 512
    ENCODER         : Lavf61.7.100
  Duration: 00:23:47.59, start: -0.021000, bitrate: 1112 kb/s
  Stream #0:0: Video: hevc (Main 10), yuv420p10le(tv, bt709, progressive), 1920x1080 [SAR 1:1 DAR 16:9], 23.98 fps, 23.98 tbr, 1k tbn (default)
      Metadata:
        HANDLER_NAME    : VideoHandler
        VENDOR_ID       : [0][0][0][0]
        ENCODER         : Lavc61.19.100 libx265
        BPS             : 916216
        DURATION        : 00:23:46.591708333
        NUMBER_OF_FRAMES: 34204
        NUMBER_OF_BYTES : 163383353
        _STATISTICS_WRITING_APP: mkvpropedit v66.0.0 ('Josie') 64-bit
        _STATISTICS_WRITING_DATE_UTC: 2025-06-02 10:35:08
        _STATISTICS_TAGS: BPS DURATION NUMBER_OF_FRAMES NUMBER_OF_BYTES
  Stream #0:1: Audio: aac (LC), 48000 Hz, stereo, fltp (default)
      Metadata:
        HANDLER_NAME    : SoundHandler
        VENDOR_ID       : [0][0][0][0]
        ENCODER         : Lavc61.19.100 aac
        BPS             : 193317
        DURATION        : 00:23:47.584000000
        NUMBER_OF_FRAMES: 66919
        NUMBER_OF_BYTES : 34497163
        _STATISTICS_WRITING_APP: mkvpropedit v66.0.0 ('Josie') 64-bit
        _STATISTICS_WRITING_DATE_UTC: 2025-06-02 10:35:08
        _STATISTICS_TAGS: BPS DURATION NUMBER_OF_FRAMES NUMBER_OF_BYTES
Input #1, mov,mp4,m4a,3gp,3g2,mj2, from 'G:\Аниме\Онгоинги\!_36_Осень_2024\DreamCast\Перерождение в аристократа со способностью анализа\ТВ-2\DC_Tensei_Kizoku_Kantei_Skill_de_Nariagaru_S2_09_Telegram.mp4':
  Metadata:
    major_brand     : isom
    minor_version   : 512
    compatible_brands: isomiso2avc1mp41
    encoder         : Lavf61.1.100
  Duration: 00:23:47.56, start: 0.000000, bitrate: 3489 kb/s
  Stream #1:0[0x1](und): Video: h264 (High) (avc1 / 0x31637661), yuv420p(tv, bt709, progressive), 1920x1080 [SAR 1:1 DAR 16:9], 3343 kb/s, 23.98 fps, 23.98 tbr, 24k tbn (default)
      Metadata:
        handler_name    : VideoHandler
        vendor_id       : [0][0][0][0]
        encoder         : Lavc61.3.100 h264_qsv
  Stream #1:1[0x2](und): Audio: aac (HE-AACv2) (mp4a / 0x6134706D), 48000 Hz, stereo, fltp, 144 kb/s (default)
      Metadata:
        handler_name    : SoundHandler
        vendor_id       : [0][0][0][0]
Stream mapping:
  Stream #0:0 (hevc) -> settb:default
  Stream #1:0 (h264) -> settb:default
  ssim:default -> Stream #0:0 (wrapped_avframe)
  Stream #0:1 -> #0:1 (aac (native) -> pcm_s16le (native))
Output #0, null, to 'pipe:':
  Metadata:
    COMPATIBLE_BRANDS: isomiso2avc1mp41
    MAJOR_BRAND     : isom
    MINOR_VERSION   : 512
    encoder         : Lavf61.7.100
  Stream #0:0: Video: wrapped_avframe, yuv420p10le(tv, bt709, progressive), 1920x1080 [SAR 1:1 DAR 16:9], q=2-31, 200 kb/s, 23.98 fps, 23.98 tbn
      Metadata:
        encoder         : Lavc61.19.100 wrapped_avframe
  Stream #0:1: Audio: pcm_s16le, 48000 Hz, stereo, s16, 1536 kb/s (default)
      Metadata:
        HANDLER_NAME    : SoundHandler
        VENDOR_ID       : [0][0][0][0]
        _STATISTICS_TAGS: BPS DURATION NUMBER_OF_FRAMES NUMBER_OF_BYTES
        BPS             : 193317
        DURATION        : 00:23:47.584000000
        NUMBER_OF_FRAMES: 66919
        NUMBER_OF_BYTES : 34497163
        _STATISTICS_WRITING_APP: mkvpropedit v66.0.0 ('Josie') 64-bit
        _STATISTICS_WRITING_DATE_UTC: 2025-06-02 10:35:08
        encoder         : Lavc61.19.100 pcm_s16le
frame=  156 fps=0.0 q=-0.0 size=N/A time=00:00:06.50 bitrate=N/A speed=12.8x    frame=  388 fps=376 q=-0.0 size=N/A time=00:00:16.18 bitrate=N/A speed=15.7x    frame=  610 fps=395 q=-0.0 size=N/A time=00:00:25.44 bitrate=N/A speed=16.5x    frame=  885 fps=431 q=-0.0 size=N/A time=00:00:36.91 bitrate=N/A speed=  18x    frame= 1159 fps=450 q=-0.0 size=N/A time=00:00:48.33 bitrate=N/A speed=18.8x    frame= 1417 fps=459 q=-0.0 size=N/A time=00:00:59.10 bitrate=N/A speed=19.1x    frame= 1683 fps=466 q=-0.0 size=N/A time=00:01:10.19 bitrate=N/A speed=19.4x    frame= 1945 fps=473 q=-0.0 size=N/A time=00:01:21.12 bitrate=N/A speed=19.7x    frame= 2218 fps=479 q=-0.0 size=N/A time=00:01:32.50 bitrate=N/A speed=  20x    frame= 2446 fps=474 q=-0.0 size=N/A time=00:01:42.01 bitrate=N/A speed=19.8x    frame= 2616 fps=462 q=-0.0 size=N/A time=00:01:49.10 bitrate=N/A speed=19.3x    frame= 2797 fps=452 q=-0.0 size=N/A time=00:01:56.65 bitrate=N/A speed=18.8x    frame= 2993 fps=446 q=-0.0 size=N/A time=00:02:04.83 bitrate=N/A speed=18.6x    frame= 3152 fps=437 q=-0.0 size=N/A time=00:02:11.46 bitrate=N/A speed=18.2x    frame= 3295 fps=427 q=-0.0 size=N/A time=00:02:17.42 bitrate=N/A speed=17.8x    frame= 3481 fps=422 q=-0.0 size=N/A time=00:02:25.18 bitrate=N/A speed=17.6x    frame= 3639 fps=415 q=-0.0 size=N/A time=00:02:31.77 bitrate=N/A speed=17.3x    frame= 3836 fps=413 q=-0.0 size=N/A time=00:02:39.99 bitrate=N/A speed=17.2x    frame= 4012 fps=410 q=-0.0 size=N/A time=00:02:47.33 bitrate=N/A speed=17.1x    frame= 4188 fps=406 q=-0.0 size=N/A time=00:02:54.67 bitrate=N/A speed=16.9x    frame= 4370 fps=403 q=-0.0 size=N/A time=00:03:02.26 bitrate=N/A speed=16.8x    frame= 4572 fps=403 q=-0.0 size=N/A time=00:03:10.69 bitrate=N/A speed=16.8x    frame= 4775 fps=403 q=-0.0 size=N/A time=00:03:19.15 bitrate=N/A speed=16.8x    frame= 4956 fps=401 q=-0.0 size=N/A time=00:03:26.70 bitrate=N/A speed=16.7x    frame= 5175 fps=402 q=-0.0 size=N/A time=00:03:35.84 bitrate=N/A speed=16.8x    frame= 5377 fps=401 q=-0.0 size=N/A time=00:03:44.26 bitrate=N/A speed=16.7x    frame= 5608 fps=403 q=-0.0 size=N/A time=00:03:53.90 bitrate=N/A speed=16.8x    frame= 5871 fps=407 q=-0.0 size=N/A time=00:04:04.86 bitrate=N/A speed=  17x    frame= 6125 fps=410 q=-0.0 size=N/A time=00:04:15.46 bitrate=N/A speed=17.1x    frame= 6399 fps=414 q=-0.0 size=N/A time=00:04:26.89 bitrate=N/A speed=17.3x    frame= 6657 fps=417 q=-0.0 size=N/A time=00:04:37.65 bitrate=N/A speed=17.4x    frame= 6928 fps=420 q=-0.0 size=N/A time=00:04:48.95 bitrate=N/A speed=17.5x    frame= 7177 fps=422 q=-0.0 size=N/A time=00:04:59.34 bitrate=N/A speed=17.6x    frame= 7432 fps=424 q=-0.0 size=N/A time=00:05:09.97 bitrate=N/A speed=17.7x    frame= 7683 fps=426 q=-0.0 size=N/A time=00:05:20.44 bitrate=N/A speed=17.8x    frame= 7925 fps=427 q=-0.0 size=N/A time=00:05:30.53 bitrate=N/A speed=17.8x    frame= 8193 fps=429 q=-0.0 size=N/A time=00:05:41.71 bitrate=N/A speed=17.9x    frame= 8452 fps=431 q=-0.0 size=N/A time=00:05:52.51 bitrate=N/A speed=  18x    frame= 8672 fps=431 q=-0.0 size=N/A time=00:06:01.69 bitrate=N/A speed=  18x    frame= 8882 fps=431 q=-0.0 size=N/A time=00:06:10.45 bitrate=N/A speed=  18x    frame= 9134 fps=432 q=-0.0 size=N/A time=00:06:20.96 bitrate=N/A speed=  18x    frame= 9389 fps=433 q=-0.0 size=N/A time=00:06:31.59 bitrate=N/A speed=18.1x    frame= 9627 fps=434 q=-0.0 size=N/A time=00:06:41.52 bitrate=N/A speed=18.1x    frame= 9874 fps=435 q=-0.0 size=N/A time=00:06:51.82 bitrate=N/A speed=18.2x    frame=10119 fps=436 q=-0.0 size=N/A time=00:07:02.04 bitrate=N/A speed=18.2x    frame=10398 fps=438 q=-0.0 size=N/A time=00:07:13.68 bitrate=N/A speed=18.3x    frame=10661 fps=440 q=-0.0 size=N/A time=00:07:24.65 bitrate=N/A speed=18.3x    frame=10930 fps=442 q=-0.0 size=N/A time=00:07:35.87 bitrate=N/A speed=18.4x    frame=11183 fps=442 q=-0.0 size=N/A time=00:07:46.42 bitrate=N/A speed=18.5x    frame=11439 fps=443 q=-0.0 size=N/A time=00:07:57.10 bitrate=N/A speed=18.5x    frame=11661 fps=443 q=-0.0 size=N/A time=00:08:06.36 bitrate=N/A speed=18.5x    frame=11917 fps=444 q=-0.0 size=N/A time=00:08:17.03 bitrate=N/A speed=18.5x    frame=12179 fps=445 q=-0.0 size=N/A time=00:08:27.96 bitrate=N/A speed=18.6x    frame=12412 fps=446 q=-0.0 size=N/A time=00:08:37.68 bitrate=N/A speed=18.6x    frame=12696 fps=447 q=-0.0 size=N/A time=00:08:49.52 bitrate=N/A speed=18.7x    frame=12947 fps=448 q=-0.0 size=N/A time=00:08:59.99 bitrate=N/A speed=18.7x    frame=13193 fps=449 q=-0.0 size=N/A time=00:09:10.25 bitrate=N/A speed=18.7x    frame=13454 fps=450 q=-0.0 size=N/A time=00:09:21.14 bitrate=N/A speed=18.8x    frame=13702 fps=450 q=-0.0 size=N/A time=00:09:31.48 bitrate=N/A speed=18.8x    frame=13881 fps=448 q=-0.0 size=N/A time=00:09:38.95 bitrate=N/A speed=18.7x    frame=14059 fps=447 q=-0.0 size=N/A time=00:09:46.37 bitrate=N/A speed=18.6x    frame=14302 fps=447 q=-0.0 size=N/A time=00:09:56.51 bitrate=N/A speed=18.6x    frame=14496 fps=446 q=-0.0 size=N/A time=00:10:04.60 bitrate=N/A speed=18.6x    frame=14643 fps=443 q=-0.0 size=N/A time=00:10:10.73 bitrate=N/A speed=18.5x    frame=14841 fps=443 q=-0.0 size=N/A time=00:10:18.99 bitrate=N/A speed=18.5x    frame=15038 fps=442 q=-0.0 size=N/A time=00:10:27.20 bitrate=N/A speed=18.4x    frame=15228 fps=441 q=-0.0 size=N/A time=00:10:35.13 bitrate=N/A speed=18.4x    frame=15444 fps=440 q=-0.0 size=N/A time=00:10:44.14 bitrate=N/A speed=18.4x    frame=15670 fps=440 q=-0.0 size=N/A time=00:10:53.56 bitrate=N/A speed=18.4x    frame=15860 fps=439 q=-0.0 size=N/A time=00:11:01.49 bitrate=N/A speed=18.3x    frame=16049 fps=438 q=-0.0 size=N/A time=00:11:09.37 bitrate=N/A speed=18.3x    frame=16248 fps=438 q=-0.0 size=N/A time=00:11:17.67 bitrate=N/A speed=18.2x    frame=16430 fps=436 q=-0.0 size=N/A time=00:11:25.26 bitrate=N/A speed=18.2x    frame=16609 fps=435 q=-0.0 size=N/A time=00:11:32.73 bitrate=N/A speed=18.1x    frame=16812 fps=434 q=-0.0 size=N/A time=00:11:41.20 bitrate=N/A speed=18.1x    frame=17050 fps=435 q=-0.0 size=N/A time=00:11:51.12 bitrate=N/A speed=18.1x    frame=17289 fps=435 q=-0.0 size=N/A time=00:12:01.09 bitrate=N/A speed=18.1x    frame=17554 fps=436 q=-0.0 size=N/A time=00:12:12.14 bitrate=N/A speed=18.2x    frame=17777 fps=436 q=-0.0 size=N/A time=00:12:21.44 bitrate=N/A speed=18.2x    frame=17983 fps=436 q=-0.0 size=N/A time=00:12:30.04 bitrate=N/A speed=18.2x    frame=18188 fps=435 q=-0.0 size=N/A time=00:12:38.59 bitrate=N/A speed=18.2x    frame=18430 fps=436 q=-0.0 size=N/A time=00:12:48.68 bitrate=N/A speed=18.2x    frame=18674 fps=436 q=-0.0 size=N/A time=00:12:58.86 bitrate=N/A speed=18.2x    frame=18878 fps=436 q=-0.0 size=N/A time=00:13:07.36 bitrate=N/A speed=18.2x    frame=19148 fps=437 q=-0.0 size=N/A time=00:13:18.63 bitrate=N/A speed=18.2x    frame=19404 fps=437 q=-0.0 size=N/A time=00:13:29.30 bitrate=N/A speed=18.2x    frame=19661 fps=438 q=-0.0 size=N/A time=00:13:40.02 bitrate=N/A speed=18.3x    frame=19910 fps=438 q=-0.0 size=N/A time=00:13:50.41 bitrate=N/A speed=18.3x    frame=20127 fps=438 q=-0.0 size=N/A time=00:13:59.46 bitrate=N/A speed=18.3x    frame=20395 fps=439 q=-0.0 size=N/A time=00:14:10.64 bitrate=N/A speed=18.3x    frame=20662 fps=440 q=-0.0 size=N/A time=00:14:21.77 bitrate=N/A speed=18.4x    frame=20913 fps=441 q=-0.0 size=N/A time=00:14:32.24 bitrate=N/A speed=18.4x    frame=21131 fps=440 q=-0.0 size=N/A time=00:14:41.33 bitrate=N/A speed=18.4x    frame=21384 fps=441 q=-0.0 size=N/A time=00:14:51.89 bitrate=N/A speed=18.4x    frame=21651 fps=442 q=-0.0 size=N/A time=00:15:03.02 bitrate=N/A speed=18.4x    frame=21893 fps=442 q=-0.0 size=N/A time=00:15:13.12 bitrate=N/A speed=18.4x    frame=22184 fps=443 q=-0.0 size=N/A time=00:15:25.25 bitrate=N/A speed=18.5x    frame=22453 fps=444 q=-0.0 size=N/A time=00:15:36.47 bitrate=N/A speed=18.5x    frame=22721 fps=445 q=-0.0 size=N/A time=00:15:47.65 bitrate=N/A speed=18.6x    frame=22968 fps=445 q=-0.0 size=N/A time=00:15:57.95 bitrate=N/A speed=18.6x    frame=23201 fps=445 q=-0.0 size=N/A time=00:16:07.67 bitrate=N/A speed=18.6x    frame=23455 fps=446 q=-0.0 size=N/A time=00:16:18.26 bitrate=N/A speed=18.6x    frame=23627 fps=445 q=-0.0 size=N/A time=00:16:25.44 bitrate=N/A speed=18.5x    frame=23825 fps=444 q=-0.0 size=N/A time=00:16:33.70 bitrate=N/A speed=18.5x    frame=24060 fps=444 q=-0.0 size=N/A time=00:16:43.50 bitrate=N/A speed=18.5x    frame=24302 fps=444 q=-0.0 size=N/A time=00:16:53.59 bitrate=N/A speed=18.5x    frame=24562 fps=445 q=-0.0 size=N/A time=00:17:04.44 bitrate=N/A speed=18.6x    frame=24816 fps=445 q=-0.0 size=N/A time=00:17:15.03 bitrate=N/A speed=18.6x    frame=25054 fps=445 q=-0.0 size=N/A time=00:17:24.96 bitrate=N/A speed=18.6x    frame=25269 fps=445 q=-0.0 size=N/A time=00:17:33.92 bitrate=N/A speed=18.6x    frame=25550 fps=446 q=-0.0 size=N/A time=00:17:45.64 bitrate=N/A speed=18.6x    frame=25798 fps=446 q=-0.0 size=N/A time=00:17:55.99 bitrate=N/A speed=18.6x    frame=26067 fps=447 q=-0.0 size=N/A time=00:18:07.21 bitrate=N/A speed=18.7x    frame=26345 fps=448 q=-0.0 size=N/A time=00:18:18.80 bitrate=N/A speed=18.7x    frame=26607 fps=449 q=-0.0 size=N/A time=00:18:29.73 bitrate=N/A speed=18.7x    frame=26883 fps=449 q=-0.0 size=N/A time=00:18:41.24 bitrate=N/A speed=18.7x    frame=27138 fps=450 q=-0.0 size=N/A time=00:18:51.88 bitrate=N/A speed=18.8x    frame=27401 fps=450 q=-0.0 size=N/A time=00:19:02.85 bitrate=N/A speed=18.8x    frame=27665 fps=451 q=-0.0 size=N/A time=00:19:13.86 bitrate=N/A speed=18.8x    frame=27922 fps=451 q=-0.0 size=N/A time=00:19:24.58 bitrate=N/A speed=18.8x    frame=28189 fps=452 q=-0.0 size=N/A time=00:19:35.71 bitrate=N/A speed=18.8x    frame=28439 fps=452 q=-0.0 size=N/A time=00:19:46.14 bitrate=N/A speed=18.8x    frame=28687 fps=452 q=-0.0 size=N/A time=00:19:56.48 bitrate=N/A speed=18.9x    frame=28943 fps=453 q=-0.0 size=N/A time=00:20:07.16 bitrate=N/A speed=18.9x    frame=29214 fps=453 q=-0.0 size=N/A time=00:20:18.46 bitrate=N/A speed=18.9x    frame=29478 fps=453 q=-0.0 size=N/A time=00:20:29.47 bitrate=N/A speed=18.9x    frame=29728 fps=454 q=-0.0 size=N/A time=00:20:39.90 bitrate=N/A speed=18.9x    frame=30005 fps=454 q=-0.0 size=N/A time=00:20:51.45 bitrate=N/A speed=  19x    frame=30220 fps=454 q=-0.0 size=N/A time=00:21:00.42 bitrate=N/A speed=18.9x    frame=30480 fps=455 q=-0.0 size=N/A time=00:21:11.27 bitrate=N/A speed=  19x    frame=30720 fps=455 q=-0.0 size=N/A time=00:21:21.28 bitrate=N/A speed=  19x    frame=30945 fps=454 q=-0.0 size=N/A time=00:21:30.66 bitrate=N/A speed=  19x    frame=31169 fps=454 q=-0.0 size=N/A time=00:21:40.00 bitrate=N/A speed=18.9x    frame=31416 fps=454 q=-0.0 size=N/A time=00:21:50.30 bitrate=N/A speed=  19x    frame=31648 fps=454 q=-0.0 size=N/A time=00:21:59.98 bitrate=N/A speed=  19x    frame=31883 fps=454 q=-0.0 size=N/A time=00:22:09.78 bitrate=N/A speed=  19x    frame=32146 fps=455 q=-0.0 size=N/A time=00:22:20.75 bitrate=N/A speed=  19x    frame=32407 fps=455 q=-0.0 size=N/A time=00:22:31.64 bitrate=N/A speed=  19x    frame=32642 fps=455 q=-0.0 size=N/A time=00:22:41.44 bitrate=N/A speed=  19x    frame=32876 fps=455 q=-0.0 size=N/A time=00:22:51.20 bitrate=N/A speed=  19x    frame=33083 fps=455 q=-0.0 size=N/A time=00:22:59.83 bitrate=N/A speed=  19x    frame=33321 fps=455 q=-0.0 size=N/A time=00:23:09.76 bitrate=N/A speed=  19x    frame=33525 fps=455 q=-0.0 size=N/A time=00:23:18.27 bitrate=N/A speed=  19x    frame=33751 fps=454 q=-0.0 size=N/A time=00:23:27.69 bitrate=N/A speed=  19x    frame=33968 fps=454 q=-0.0 size=N/A time=00:23:36.74 bitrate=N/A speed=18.9x    frame=34181 fps=454 q=-0.0 size=N/A time=00:23:45.63 bitrate=N/A speed=18.9x    [Parsed_ssim_10 @ 0000025820379700] SSIM Y:0.993208 (21.680342) U:0.995324 (23.301255) V:0.995413 (23.384721) All:0.993929 (22.167041)
[out#0/null @ 000002581d865380] video:14697KiB audio:267676KiB subtitle:0KiB other streams:0KiB global headers:0KiB muxing overhead: unknown
frame=34204 fps=454 q=-0.0 Lsize=N/A time=00:23:46.59 bitrate=N/A speed=18.9x    
